{"title":"10.5 (2004) DVD RIP","uid":9379150,"size":1987242718,"categoryP":"video","categoryS":"movies","magnet":"?xt=urn:btih:c5e1dd20cb7670f990cd314b3fec3ca36b891401&amp;dn=+10.5+%282004%29+DVD+RIP&amp;tr=udp%3A%2F%2Ftracker.openbittorrent.com%3A80&amp;tr=udp%3A%2F%2Fopen.demonii.com%3A1337&amp;tr=udp%3A%2F%2Ftracker.coppersurfer.tk%3A6969&amp;tr=udp%3A%2F%2Fexodus.desync.com%3A6969","seeders":0,"leechers":2,"uploader":"sonicx33","files":-1,"time":1387682910,"description":" &lt;a href=&quot;http://www.imdb.com/title/tt0364146/&quot; rel=&quot;nofollow&quot; target=&quot;_NEW&quot;&gt;http://www.imdb.com/title/tt0364146/&lt;/a&gt;\n\n &lt;a href=&quot;\nhttp://postimg.org/image/n1e9nlbv3/&quot; rel=&quot;nofollow&quot; target=&quot;_NEW&quot;&gt;\nhttp://postimg.org/image/n1e9nlbv3/&lt;/a&gt;\n\n &lt;a href=&quot;\nhttp://postimg.org/image/6p47xuxjj/&quot; rel=&quot;nofollow&quot; target=&quot;_NEW&quot;&gt;\nhttp://postimg.org/image/6p47xuxjj/&lt;/a&gt;\n\n\nStoryline\n\nThe West coast of Northern America suffers an unprecedented series of major earthquakes in a matter of days, puzzling seismologists, including Dr. Jordan Fisher's team. His maverick assistant Samantha Hill comes up with a theory, which they confirm on site, that a deep tectonic rift links them and is likely to sink most of California into the Pacific. The only imaginable countermeasure are subterranean nuclear explosions. Three succeed, one rather causes a new problem. Meanwhile federal and other authorities as well as various people wrestle with side-effects like landslides and cope with a huge refugees exodus. \n\n\nINCLUDES DIRECTORIES COMMENTARY\n\n\nFormat                                   : MPEG-4\nFormat profile                           : Base Media / Version 2\nCodec ID                                 : mp42\nFile size                                : 1.83 GiB\nDuration                                 : 2h 43mn\nOverall bit rate mode                    : Variable\nOverall bit rate                         : 1 602 Kbps\nEncoded date                             : UTC 2013-12-21 10:59:46\nTagged date                              : UTC 2013-12-21 19:21:12\nWriting application                      : HandBrake 0.9.9 2013052900\n\nVideo\nID                                       : 1\nFormat                                   : AVC\nFormat/Info                              : Advanced Video Codec\nFormat profile                           : &lt;a class=&quot;__cf_email__&quot; href=&quot;/cdn-cgi/l/email-protection&quot; data-cfemail=&quot;c58daca2ad8589f1ebf4&quot;&gt;[email&amp;#160;protected]&lt;/a&gt;&lt;script cf-hash='f9e31' type=&quot;text/javascript&quot;&gt;\n/* &lt;![CDATA[ */!function(){try{var t=&quot;currentScript&quot;in document?document.currentScript:function(){for(var t=document.getElementsByTagName(&quot;script&quot;),e=t.length;e--;)if(t[e].getAttribute(&quot;cf-hash&quot;))return t[e]}();if(t&amp;&amp;t.previousSibling){var e,r,n,i,c=t.previousSibling,a=c.getAttribute(&quot;data-cfemail&quot;);if(a){for(e=&quot;&quot;,r=parseInt(a.substr(0,2),16),n=2;a.length-n;n+=2)i=parseInt(a.substr(n,2),16)^r,e+=String.fromCharCode(i);e=document.createTextNode(e),c.parentNode.replaceChild(e,c)}}}catch(u){}}();/* ]]&gt; */&lt;/script&gt;\nFormat settings, CABAC                   : Yes\nFormat settings, ReFrames                : 16 frames\nCodec ID                                 : avc1\nCodec ID/Info                            : Advanced Video Coding\nDuration                                 : 2h 43mn\nBit rate                                 : 1 403 Kbps\nWidth                                    : 720 pixels\nHeight                                   : 480 pixels\nDisplay aspect ratio                     : 4:3\nOriginal display aspect ratio            : 4:3\nFrame rate mode                          : Constant\nFrame rate                               : 29.970 fps\nStandard                                 : NTSC\nColor space                              : YUV\nChroma subsampling                       : 4:2:0\nBit depth                                : 8 bits\nScan type                                : Progressive\nBits/(Pixel*Frame)                       : 0.135\nStream size                              : 1.60 GiB (88%)\nWriting library                          : x264 core 130 r2273 b3065e6\n\nEncoded date                             : UTC 2013-12-21 10:59:46\nTagged date                              : UTC 2013-12-21 19:21:12\nColor primaries                          : BT.601 NTSC\nTransfer characteristics                 : BT.709\nMatrix coefficients                      : BT.601\n\nAudio #1\nID                                       : 2\nFormat                                   : AAC\nFormat/Info                              : Advanced Audio Codec\nFormat profile                           : LC\nCodec ID                                 : 40\nDuration                                 : 2h 43mn\nBit rate mode                            : Variable\nBit rate                                 : 96.0 Kbps\nMaximum bit rate                         : 117 Kbps\nChannel(s)                               : 2 channels\nChannel positions                        : Front: L R\nSampling rate                            : 48.0 KHz\nCompression mode                         : Lossy\nStream size                              : 112 MiB (6%)\nLanguage                                 : English\nEncoded date                             : UTC 2013-12-21 10:59:46\nTagged date                              : UTC 2013-12-21 19:21:11\n\n\n\nPLEASE NOTE THIS IS NOT 10.5: Apocalypse (2006) \n\n\nIT IS 10.5 THAT AIRED IN (2004)\n\n\n\nAnd This Movie Has NEVER been released in Widescreen it is in 4:3\n","torrent":{"xt":"urn:btih:c5e1dd20cb7670f990cd314b3fec3ca36b891401","amp;dn":"+10.5+%282004%29+DVD+RIP","amp;tr":["udp%3A%2F%2Ftracker.openbittorrent.com%3A80","udp%3A%2F%2Fopen.demonii.com%3A1337","udp%3A%2F%2Ftracker.coppersurfer.tk%3A6969","udp%3A%2F%2Fexodus.desync.com%3A6969"],"infoHash":"c5e1dd20cb7670f990cd314b3fec3ca36b891401","infoHashBuffer":{"type":"Buffer","data":[197,225,221,32,203,118,112,249,144,205,49,75,63,236,60,163,107,137,20,1]},"announce":[],"urlList":[]}}